<svg width="186" height="31" viewBox="0 0 186 31" fill="none" xmlns="http://www.w3.org/2000/svg">
<path d="M23.03 11.44C22.214 11.462 21.398 11.5 20.582 11.544C20.477 11.247 20.371 10.948 20.257 10.652C19.445 8.53501 18.597 6.35801 17.631 4.30401C17.399 3.81301 17.108 3.36601 16.753 3.00801C16.324 1.86501 15.668 0.911007 14.455 1.05101C14.356 1.03901 14.253 1.04401 14.145 1.09601C12.682 1.80801 12.353 3.54301 12.033 4.99401C12.008 5.10901 11.978 5.223 11.952 5.338C11.715 6.053 11.537 6.80401 11.398 7.50801C11.039 8.83001 10.671 10.154 10.414 11.49C10.331 11.738 10.241 11.985 10.16 12.233C6.865 12.411 3.586 12.698 0.383004 13.539C0.058004 13.623 -0.106996 14.04 0.077004 14.322C1.874 17.074 5.036 18.932 8.17 20.479C7.955 21.995 7.769 23.522 7.483 25.026C7.221 25.738 7.014 26.453 6.967 27.217C6.827 27.703 6.676 28.185 6.493 28.657C6.142 29.569 6.473 30.688 7.557 30.595C8.006 30.558 8.439 30.188 8.77 29.919C10.048 28.885 11.349 27.88 12.654 26.879C13.339 26.356 14.033 25.841 14.726 25.325C14.966 25.21 15.206 25.095 15.446 24.971C15.802 24.787 16.154 24.542 16.504 24.282C17.804 24.854 20.131 27.531 21.312 28.341C22.936 29.456 24.707 30.938 26.794 30.533C27.005 30.493 27.202 30.231 27.175 30.016C26.848 27.294 24.672 22.814 23.584 20.326C23.521 20.182 23.466 20.036 23.406 19.891C26.278 18.337 30.141 16.369 31.48 13.559C33.117 10.126 24.198 11.409 23.03 11.44ZM6.302 14.645C6.555 14.64 6.808 14.633 7.061 14.628C6.814 14.961 6.561 15.282 6.289 15.587C6.317 15.367 6.346 15.147 6.364 14.923C6.375 14.808 6.347 14.719 6.302 14.645ZM2.786 15.491C2.723 15.528 2.668 15.582 2.624 15.645C2.427 15.466 2.231 15.286 2.047 15.093C2.091 15.092 2.134 15.099 2.183 15.086C2.39 15.036 2.598 15.003 2.805 14.963C2.763 15.154 2.759 15.329 2.786 15.491ZM5.129 16.894C4.968 16.777 4.808 16.662 4.652 16.547C4.813 16.504 4.979 16.43 5.149 16.324C5.134 16.509 5.124 16.694 5.127 16.885C5.127 16.887 5.129 16.891 5.129 16.894ZM4.77 15.321C4.787 15.148 4.793 14.963 4.774 14.747C4.773 14.734 4.768 14.725 4.765 14.713C4.966 14.699 5.167 14.687 5.368 14.677C5.155 14.966 4.951 15.197 4.77 15.321ZM6.327 17.746C6.168 17.636 5.996 17.515 5.816 17.388C5.856 17.374 5.895 17.357 5.933 17.331C6.095 17.215 6.24 17.089 6.385 16.963C6.348 17.123 6.316 17.284 6.295 17.45C6.28 17.56 6.296 17.657 6.327 17.746ZM7.214 18.273C7.2 18.302 7.067 18.233 6.856 18.1C6.966 18.088 7.08 18.043 7.188 17.953C7.287 17.872 7.372 17.78 7.46 17.69C7.38 17.896 7.298 18.094 7.214 18.273ZM7.984 19.008C8.461 18.501 8.597 17.526 8.755 16.911C8.942 16.184 9.184 15.362 9.261 14.569C9.322 14.567 9.384 14.561 9.445 14.557C9.012 16.072 8.642 17.614 8.37 19.203C8.242 19.139 8.112 19.072 7.984 19.008ZM8.436 28.837C7.602 29.517 7.462 29.328 7.558 28.894C7.61 28.894 7.661 28.896 7.707 28.878C8.095 28.726 8.478 28.557 8.86 28.388C8.876 28.413 8.893 28.435 8.912 28.456C8.753 28.582 8.593 28.708 8.436 28.837ZM8.925 27.202C8.874 27.226 8.824 27.254 8.774 27.277C8.871 25.407 9.383 23.651 9.887 21.844C9.932 21.684 9.97 21.524 10.01 21.363C10.034 21.375 10.057 21.386 10.082 21.397C9.691 23.33 9.32 25.268 8.925 27.202ZM10.755 16.725C10.843 16.683 10.925 16.621 10.982 16.519C11.106 16.294 11.214 16.066 11.321 15.837C10.955 17.287 10.627 18.744 10.323 20.205C10.303 20.195 10.282 20.185 10.262 20.176C10.471 19.035 10.6 17.889 10.755 16.725ZM10.181 26.346C10.479 24.85 10.767 23.355 11.067 21.864C11.348 21.996 11.621 22.128 11.891 22.259C11.378 23.588 10.966 25.12 10.181 26.346ZM12.247 21.125C11.933 20.979 11.62 20.831 11.308 20.682C11.429 20.098 11.555 19.513 11.683 18.931C11.626 19.38 11.569 19.829 11.51 20.279C11.443 20.785 12 21.068 12.325 20.872C12.299 20.955 12.272 21.039 12.247 21.125ZM14.377 3.486C14.452 3.433 14.533 3.39101 14.615 3.35501C14.665 3.45501 14.716 3.55201 14.769 3.64901C14.615 3.60201 14.436 3.628 14.296 3.708C14.322 3.634 14.35 3.561 14.377 3.486ZM14.274 8.723C14.265 9.811 14.183 10.902 14.136 11.994C14.109 11.996 14.082 11.997 14.054 12C14.156 10.91 14.199 9.816 14.274 8.723ZM12.662 19.806C12.893 18.357 13.046 16.868 13.407 15.443C13.41 15.434 13.417 15.427 13.42 15.42C13.428 15.396 13.434 15.371 13.441 15.348C13.492 15.913 13.538 16.543 13.598 17.186C13.269 18.053 12.953 18.925 12.662 19.806ZM14.824 22.299C14.564 22.182 14.304 22.063 14.044 21.946C14.101 21.785 14.163 21.627 14.221 21.467C14.339 21.476 14.458 21.443 14.56 21.359C14.651 21.514 14.75 21.652 14.86 21.775C14.858 21.824 14.853 21.873 14.852 21.923C14.849 22.034 14.883 22.131 14.94 22.21C14.901 22.24 14.863 22.271 14.824 22.299ZM16.677 6.999C16.764 7.248 16.834 7.506 16.898 7.767C16.773 7.833 16.678 7.944 16.64 8.083C16.338 6.958 15.956 5.86201 15.475 4.78701C15.93 5.47701 16.387 6.166 16.677 6.999ZM16.194 11.844C16.05 11.855 15.907 11.865 15.762 11.876C15.757 10.62 15.681 9.366 15.568 8.111C15.901 9.319 16.109 10.562 16.194 11.844ZM15.715 13.742C15.729 13.466 15.74 13.189 15.747 12.913C15.917 12.904 16.086 12.894 16.255 12.886C16.267 13.113 16.281 13.335 16.294 13.561C16.159 13.744 16.028 13.934 15.906 14.13C15.905 13.974 15.832 13.837 15.715 13.742ZM16.169 22.91C16.134 22.894 16.1 22.88 16.065 22.863C16.257 22.844 16.44 22.729 16.514 22.489C16.521 22.468 16.53 22.445 16.536 22.422C16.816 22.247 17.045 22.154 17.158 22.214C16.828 22.445 16.497 22.675 16.169 22.91ZM18.732 18.229C18.479 18.597 18.216 18.95 17.934 19.284C18.209 18.837 18.481 18.388 18.764 17.945C18.755 18.038 18.744 18.133 18.732 18.229ZM19.414 11.614C19.033 10.624 18.597 9.659 18.073 8.727C18.051 8.581 18.028 8.43301 18.004 8.28801C18.006 8.16401 18.011 8.039 18.014 7.916C18.515 9.14 19.009 10.369 19.472 11.609C19.453 11.611 19.434 11.612 19.414 11.614ZM21.532 19.251C21.518 19.128 21.468 19.015 21.393 18.92C21.116 17.606 20.873 16.284 20.53 15.051C20.306 14.245 20.064 13.451 19.796 12.668C19.817 12.665 19.839 12.665 19.86 12.663C20.088 13.299 20.312 13.934 20.521 14.575C20.819 15.49 21.138 16.388 21.463 17.282C21.568 17.86 21.708 18.432 21.922 18.992C21.792 19.078 21.662 19.164 21.532 19.251ZM22.131 24.371C22.257 24.464 22.424 24.486 22.578 24.451C22.66 24.875 23.77 27.357 23.788 27.788C23.551 27.356 22.305 24.842 22.131 24.371ZM24.31 24.789C24.344 24.879 25.761 27.867 25.829 28.593C24.92 26.858 23.491 22.882 22.786 21.059C22.653 20.713 22.31 20.642 22.055 20.751C22.042 20.723 22.032 20.695 22.02 20.668C22.118 20.611 22.215 20.552 22.314 20.495C22.406 20.442 22.506 20.388 22.602 20.335C23.168 21.813 23.746 23.288 24.31 24.789ZM22.987 18.293C22.987 18.077 22.987 17.862 22.987 17.647C23.051 17.806 23.129 17.964 23.237 18.124C23.239 18.127 23.242 18.129 23.243 18.132C23.158 18.186 23.072 18.238 22.987 18.293ZM23.651 15.923C23.62 15.74 23.59 15.565 23.555 15.408C23.369 14.56 22.956 13.755 22.697 12.927C22.623 12.689 22.46 12.579 22.286 12.56C22.492 12.555 22.698 12.549 22.904 12.542C22.889 12.618 22.887 12.697 22.916 12.782C23.158 13.487 23.418 14.214 23.78 14.873C23.756 15.225 23.712 15.575 23.651 15.923ZM24.39 17.403C24.488 17.075 24.572 16.738 24.642 16.393C24.733 16.557 24.82 16.724 24.917 16.885C24.953 16.945 24.995 16.989 25.039 17.027C24.823 17.153 24.605 17.273 24.39 17.403ZM24.737 12.816C24.717 12.707 24.689 12.602 24.665 12.495C24.826 12.49 24.987 12.484 25.149 12.478C25.118 12.549 25.098 12.63 25.107 12.73C25.109 12.753 25.11 12.778 25.112 12.801C25.035 12.925 24.999 13.074 25.039 13.223C25.075 13.36 25.121 13.491 25.164 13.623C25.17 13.792 25.171 13.959 25.168 14.127C25.011 13.695 24.86 13.259 24.737 12.816ZM26.202 12.92C26.192 12.854 26.177 12.791 26.168 12.725C26.324 12.726 26.475 12.732 26.62 12.742C26.61 12.792 26.601 12.845 26.608 12.907C26.629 13.078 26.648 13.247 26.668 13.416C26.529 13.239 26.375 13.073 26.202 12.92ZM29.086 13.765C29.097 13.473 29.093 13.18 29.086 12.88C29.39 13.048 29.458 13.324 29.086 13.765Z" fill="#995C41"/>
<path d="M61.428 11.44C60.612 11.462 59.796 11.5 58.98 11.544C58.875 11.247 58.769 10.948 58.655 10.652C57.843 8.53501 56.995 6.35801 56.029 4.30401C55.797 3.81301 55.505 3.36601 55.151 3.00801C54.722 1.86501 54.067 0.911007 52.853 1.05101C52.755 1.03901 52.651 1.04401 52.543 1.09601C51.08 1.80801 50.751 3.54301 50.431 4.99401C50.406 5.10901 50.377 5.223 50.351 5.338C50.113 6.053 49.935 6.80401 49.796 7.50801C49.437 8.83001 49.07 10.154 48.812 11.49C48.728 11.738 48.639 11.985 48.558 12.233C45.263 12.411 41.984 12.698 38.78 13.539C38.456 13.623 38.29 14.04 38.475 14.322C40.272 17.074 43.434 18.932 46.568 20.479C46.353 21.995 46.167 23.522 45.881 25.026C45.62 25.738 45.412 26.453 45.365 27.217C45.225 27.703 45.074 28.185 44.892 28.657C44.54 29.569 44.872 30.688 45.955 30.595C46.404 30.558 46.837 30.188 47.169 29.919C48.447 28.885 49.748 27.88 51.052 26.879C51.737 26.356 52.431 25.841 53.124 25.325C53.364 25.21 53.604 25.095 53.844 24.971C54.201 24.787 54.552 24.542 54.903 24.282C56.202 24.854 58.53 27.531 59.711 28.341C61.334 29.456 63.105 30.938 65.192 30.533C65.404 30.493 65.6 30.231 65.574 30.016C65.247 27.294 63.071 22.814 61.983 20.326C61.92 20.182 61.865 20.036 61.805 19.891C64.677 18.337 68.54 16.369 69.879 13.559C71.515 10.126 62.596 11.409 61.428 11.44ZM44.701 14.645C44.954 14.64 45.207 14.633 45.46 14.628C45.212 14.961 44.96 15.282 44.689 15.587C44.717 15.367 44.746 15.147 44.765 14.923C44.773 14.808 44.745 14.719 44.701 14.645ZM41.184 15.491C41.121 15.528 41.066 15.582 41.022 15.645C40.825 15.466 40.629 15.286 40.445 15.093C40.49 15.092 40.532 15.099 40.581 15.086C40.788 15.036 40.996 15.003 41.203 14.963C41.161 15.154 41.157 15.329 41.184 15.491ZM43.527 16.894C43.365 16.777 43.206 16.662 43.05 16.547C43.211 16.504 43.377 16.43 43.547 16.324C43.532 16.509 43.522 16.694 43.526 16.885C43.526 16.887 43.527 16.891 43.527 16.894ZM43.168 15.321C43.185 15.148 43.19 14.963 43.172 14.747C43.171 14.734 43.166 14.725 43.164 14.713C43.365 14.699 43.565 14.687 43.767 14.677C43.553 14.966 43.349 15.197 43.168 15.321ZM44.725 17.746C44.567 17.636 44.394 17.515 44.215 17.388C44.255 17.374 44.294 17.357 44.331 17.331C44.493 17.215 44.638 17.089 44.783 16.963C44.746 17.123 44.714 17.284 44.693 17.45C44.678 17.56 44.694 17.657 44.725 17.746ZM45.612 18.273C45.598 18.302 45.465 18.233 45.254 18.1C45.364 18.088 45.478 18.043 45.586 17.953C45.685 17.872 45.77 17.78 45.858 17.69C45.778 17.896 45.696 18.094 45.612 18.273ZM46.382 19.008C46.859 18.501 46.995 17.526 47.153 16.911C47.34 16.184 47.582 15.362 47.659 14.569C47.721 14.567 47.782 14.561 47.843 14.557C47.41 16.072 47.04 17.614 46.768 19.203C46.64 19.139 46.511 19.072 46.382 19.008ZM46.834 28.837C46 29.517 45.861 29.328 45.956 28.894C46.008 28.894 46.059 28.896 46.105 28.878C46.494 28.726 46.876 28.557 47.258 28.388C47.274 28.413 47.292 28.435 47.31 28.456C47.151 28.582 46.991 28.708 46.834 28.837ZM47.323 27.202C47.272 27.226 47.223 27.254 47.172 27.277C47.27 25.407 47.781 23.651 48.285 21.844C48.329 21.684 48.368 21.524 48.408 21.363C48.432 21.375 48.455 21.386 48.479 21.397C48.089 23.33 47.719 25.268 47.323 27.202ZM49.154 16.725C49.242 16.683 49.323 16.621 49.38 16.519C49.503 16.294 49.612 16.066 49.72 15.837C49.353 17.287 49.026 18.744 48.721 20.205C48.701 20.195 48.68 20.185 48.66 20.176C48.87 19.035 48.998 17.889 49.154 16.725ZM48.579 26.346C48.877 24.85 49.166 23.355 49.466 21.864C49.747 21.996 50.019 22.128 50.29 22.259C49.777 23.588 49.364 25.12 48.579 26.346ZM50.645 21.125C50.332 20.979 50.019 20.831 49.706 20.682C49.827 20.098 49.952 19.513 50.081 18.931C50.024 19.38 49.968 19.829 49.908 20.279C49.841 20.785 50.398 21.068 50.723 20.872C50.697 20.955 50.67 21.039 50.645 21.125ZM52.774 3.486C52.849 3.433 52.93 3.39101 53.013 3.35501C53.062 3.45501 53.113 3.55201 53.167 3.64901C53.013 3.60201 52.835 3.628 52.694 3.708C52.72 3.634 52.748 3.561 52.774 3.486ZM52.672 8.723C52.663 9.811 52.581 10.902 52.534 11.994C52.507 11.996 52.48 11.997 52.453 12C52.554 10.91 52.597 9.816 52.672 8.723ZM51.06 19.806C51.291 18.357 51.444 16.868 51.805 15.443C51.808 15.434 51.815 15.427 51.818 15.42C51.825 15.396 51.831 15.371 51.839 15.348C51.89 15.913 51.936 16.543 51.996 17.186C51.667 18.053 51.351 18.925 51.06 19.806ZM53.223 22.299C52.963 22.182 52.702 22.063 52.442 21.946C52.499 21.785 52.561 21.627 52.62 21.467C52.737 21.476 52.857 21.443 52.959 21.359C53.049 21.514 53.149 21.652 53.258 21.775C53.256 21.824 53.251 21.873 53.25 21.923C53.247 22.034 53.281 22.131 53.338 22.21C53.299 22.24 53.261 22.271 53.223 22.299ZM55.075 6.999C55.161 7.248 55.232 7.506 55.296 7.767C55.171 7.833 55.076 7.944 55.039 8.083C54.737 6.958 54.355 5.86201 53.873 4.78701C54.328 5.47701 54.785 6.166 55.075 6.999ZM54.592 11.844C54.448 11.855 54.305 11.865 54.16 11.876C54.155 10.62 54.079 9.366 53.966 8.111C54.3 9.319 54.507 10.562 54.592 11.844ZM54.113 13.742C54.127 13.466 54.138 13.189 54.145 12.913C54.315 12.904 54.484 12.894 54.653 12.886C54.665 13.113 54.679 13.335 54.692 13.561C54.557 13.744 54.427 13.934 54.304 14.13C54.303 13.974 54.23 13.837 54.113 13.742ZM54.567 22.91C54.533 22.894 54.498 22.88 54.464 22.863C54.656 22.844 54.839 22.729 54.912 22.489C54.919 22.468 54.928 22.445 54.935 22.422C55.215 22.247 55.443 22.154 55.557 22.214C55.226 22.445 54.896 22.675 54.567 22.91ZM57.13 18.229C56.877 18.597 56.614 18.95 56.333 19.284C56.607 18.837 56.88 18.388 57.163 17.945C57.153 18.038 57.142 18.133 57.13 18.229ZM57.812 11.614C57.432 10.624 56.995 9.659 56.471 8.727C56.448 8.581 56.426 8.43301 56.402 8.28801C56.405 8.16401 56.409 8.039 56.412 7.916C56.913 9.14 57.407 10.369 57.87 11.609C57.851 11.611 57.832 11.612 57.812 11.614ZM59.93 19.251C59.916 19.128 59.867 19.015 59.791 18.92C59.514 17.606 59.271 16.284 58.928 15.051C58.704 14.245 58.461 13.451 58.193 12.668C58.215 12.665 58.236 12.665 58.258 12.663C58.486 13.299 58.709 13.934 58.918 14.575C59.216 15.49 59.535 16.388 59.86 17.282C59.966 17.86 60.105 18.432 60.319 18.992C60.19 19.078 60.061 19.164 59.93 19.251ZM60.529 24.371C60.654 24.464 60.821 24.486 60.976 24.451C61.057 24.875 62.168 27.357 62.185 27.788C61.949 27.356 60.703 24.842 60.529 24.371ZM62.708 24.789C62.742 24.879 64.16 27.867 64.228 28.593C63.318 26.858 61.89 22.882 61.185 21.059C61.052 20.713 60.709 20.642 60.453 20.751C60.44 20.723 60.43 20.695 60.418 20.668C60.516 20.611 60.613 20.552 60.711 20.495C60.804 20.442 60.903 20.388 60.999 20.335C61.566 21.813 62.144 23.288 62.708 24.789ZM61.385 18.293C61.385 18.077 61.385 17.862 61.385 17.647C61.449 17.806 61.527 17.964 61.635 18.124C61.637 18.127 61.64 18.129 61.642 18.132C61.557 18.186 61.47 18.238 61.385 18.293ZM62.049 15.923C62.018 15.74 61.988 15.565 61.953 15.408C61.767 14.56 61.354 13.755 61.096 12.927C61.022 12.689 60.859 12.579 60.685 12.56C60.891 12.555 61.097 12.549 61.303 12.542C61.288 12.618 61.286 12.697 61.315 12.782C61.556 13.487 61.817 14.214 62.178 14.873C62.154 15.225 62.111 15.575 62.049 15.923ZM62.789 17.403C62.887 17.075 62.971 16.738 63.04 16.393C63.131 16.557 63.218 16.724 63.315 16.885C63.351 16.945 63.393 16.989 63.437 17.027C63.221 17.153 63.002 17.273 62.789 17.403ZM63.135 12.816C63.115 12.707 63.087 12.602 63.063 12.495C63.224 12.49 63.385 12.484 63.546 12.478C63.515 12.549 63.495 12.63 63.504 12.73C63.506 12.753 63.508 12.778 63.509 12.801C63.432 12.925 63.397 13.074 63.436 13.223C63.472 13.36 63.518 13.491 63.561 13.623C63.567 13.792 63.568 13.959 63.565 14.127C63.409 13.695 63.258 13.259 63.135 12.816ZM64.601 12.92C64.59 12.854 64.575 12.791 64.567 12.725C64.723 12.726 64.874 12.732 65.018 12.742C65.008 12.792 64.999 12.845 65.006 12.907C65.027 13.078 65.046 13.247 65.066 13.416C64.927 13.239 64.773 13.073 64.601 12.92ZM67.484 13.765C67.495 13.473 67.491 13.18 67.484 12.88C67.788 13.048 67.856 13.324 67.484 13.765Z" fill="#995C41"/>
<path d="M138.75 11.303C137.927 11.324 137.105 11.363 136.284 11.408C136.178 11.107 136.071 10.806 135.957 10.509C135.139 8.376 134.286 6.18299 133.312 4.11499C133.079 3.61899 131.335 0.69899 130.113 0.83999C130.014 0.82699 129.91 0.831995 129.802 0.884995C128.328 1.601 127.996 3.34899 127.674 4.81199C127.649 4.92699 127.619 5.04099 127.593 5.15699C127.354 5.87699 127.175 6.635 127.034 7.344C126.672 8.675 126.303 10.009 126.043 11.355C125.959 11.604 125.869 11.852 125.787 12.103C122.468 12.283 119.166 12.571 115.939 13.417C115.612 13.502 115.445 13.922 115.631 14.206C117.441 16.978 120.626 18.85 123.782 20.408C123.566 21.934 122.278 28.169 122.094 28.645C121.74 29.563 122.074 30.691 123.165 30.596C123.617 30.559 131.681 24.592 131.964 24.389C134.063 25.799 136.234 27.098 138.383 28.438C139.165 28.924 140.998 30.468 142.042 29.835C143.256 29.099 140.086 21.509 139.937 20.924C139.823 20.474 139.689 20.029 139.548 19.588C142.386 18.06 145.975 16.134 147.259 13.439C148.908 9.979 139.925 11.273 138.75 11.303ZM145.814 13.341C145.092 15.719 141.193 17.339 139.267 18.534C139.074 18.653 138.871 18.775 138.674 18.896C138.832 20.228 141.686 28.466 141.356 28.795C141.068 29.083 139.685 28.241 139.622 28.184C138.346 27.013 136.862 25.96 135.491 24.895C134.568 24.177 133.479 23.707 132.517 23.077C130.345 24.563 123.609 29.024 123.484 29.21C123.391 29.255 123.147 29.47 123.095 29.465C122.215 28.455 124.91 21.372 125.232 19.938C124.615 19.694 120.558 18.37 117.587 15.331C117.374 15.114 117.291 14.9 117.333 14.683C117.333 14.678 117.335 14.674 117.335 14.668C117.337 14.658 117.337 14.647 117.34 14.638C117.366 14.316 117.561 13.997 117.906 13.892C120.703 13.038 124.006 13.148 127.052 13.072C127.324 12.444 127.353 11.674 127.517 10.944C127.795 9.71199 128.025 8.47199 128.298 7.23999C128.582 5.95599 128.461 3.278 129.835 2.621C129.879 2.6 129.923 2.58699 129.966 2.57499C130.15 2.44099 130.38 2.373 130.619 2.44C132.053 2.844 133.468 7.14999 133.695 7.85399C133.696 7.81999 135.075 12.294 135.804 12.572C136.301 12.56 138.415 12.42 138.623 12.415C138.62 12.43 140.208 12.376 141.003 12.327C142.315 12.19 145.532 12.313 145.626 12.592C145.807 12.787 145.897 13.066 145.814 13.341Z" fill="#995C41"/>
<path d="M100.196 11.303C99.3735 11.324 98.5515 11.363 97.7305 11.408C97.6245 11.107 97.5175 10.806 97.4035 10.509C96.5855 8.376 95.7325 6.18299 94.7585 4.11499C94.5255 3.61899 92.7815 0.69899 91.5595 0.83999C91.4605 0.82699 91.3565 0.831995 91.2485 0.884995C89.7745 1.601 89.4425 3.34899 89.1205 4.81199C89.0955 4.92699 89.0655 5.04099 89.0395 5.15699C88.8005 5.87699 88.6215 6.635 88.4805 7.344C88.1185 8.675 87.7495 10.009 87.4895 11.355C87.4055 11.604 87.3155 11.852 87.2335 12.103C83.9145 12.283 80.6125 12.571 77.3855 13.417C77.0585 13.502 76.8915 13.922 77.0775 14.206C78.8875 16.978 82.0725 18.85 85.2285 20.408C85.0125 21.934 83.7245 28.169 83.5405 28.645C83.1865 29.563 83.5205 30.691 84.6115 30.596C85.0635 30.559 93.1275 24.592 93.4105 24.389C95.5095 25.799 97.6805 27.098 99.8295 28.438C100.611 28.924 102.444 30.468 103.488 29.835C104.702 29.099 101.532 21.509 101.383 20.924C101.269 20.474 101.135 20.029 100.994 19.588C103.832 18.06 107.421 16.134 108.705 13.439C110.354 9.979 101.371 11.273 100.196 11.303ZM107.26 13.341C106.538 15.719 102.639 17.339 100.713 18.534C100.52 18.653 100.317 18.775 100.12 18.896C100.278 20.228 103.132 28.466 102.802 28.795C102.514 29.083 101.131 28.241 101.068 28.184C99.7925 27.013 98.3085 25.96 96.9375 24.895C96.0145 24.177 94.9255 23.707 93.9635 23.077C91.7915 24.563 85.0555 29.024 84.9305 29.21C84.8375 29.255 84.5935 29.47 84.5415 29.465C83.6615 28.455 86.3565 21.372 86.6785 19.938C86.0615 19.694 82.0045 18.37 79.0335 15.331C78.8205 15.114 78.7375 14.9 78.7795 14.683C78.7795 14.678 78.7815 14.674 78.7815 14.668C78.7835 14.658 78.7835 14.647 78.7865 14.638C78.8125 14.316 79.0075 13.997 79.3525 13.892C82.1495 13.038 85.4525 13.148 88.4985 13.072C88.7705 12.444 88.7995 11.674 88.9635 10.944C89.2415 9.71199 89.4715 8.47199 89.7445 7.23999C90.0285 5.95599 89.9075 3.278 91.2815 2.621C91.3255 2.6 91.3695 2.58699 91.4125 2.57499C91.5965 2.44099 91.8265 2.373 92.0655 2.44C93.4995 2.844 94.9145 7.14999 95.1415 7.85399C95.1425 7.81999 96.5215 12.294 97.2505 12.572C97.7475 12.56 99.8615 12.42 100.069 12.415C100.066 12.43 101.654 12.376 102.449 12.327C103.761 12.19 106.978 12.313 107.072 12.592C107.253 12.787 107.343 13.066 107.26 13.341Z" fill="#995C41"/>
<path d="M176.725 11.303C175.902 11.324 175.08 11.363 174.259 11.408C174.153 11.107 174.046 10.806 173.932 10.509C173.114 8.376 172.261 6.18299 171.287 4.11499C171.054 3.61899 169.31 0.69899 168.088 0.83999C167.989 0.82699 167.885 0.831995 167.776 0.884995C166.302 1.601 165.97 3.34899 165.648 4.81199C165.623 4.92699 165.593 5.04099 165.567 5.15699C165.328 5.87699 165.148 6.635 165.008 7.344C164.646 8.675 164.277 10.009 164.017 11.355C163.933 11.604 163.843 11.852 163.761 12.103C160.442 12.283 157.14 12.571 153.913 13.417C153.586 13.502 153.419 13.922 153.605 14.206C155.415 16.978 158.6 18.85 161.756 20.408C161.54 21.934 160.252 28.169 160.068 28.645C159.714 29.563 160.048 30.691 161.139 30.596C161.591 30.559 169.655 24.592 169.938 24.389C172.037 25.799 174.208 27.098 176.357 28.438C177.139 28.924 178.972 30.468 180.016 29.835C181.23 29.099 178.06 21.509 177.911 20.924C177.797 20.474 177.663 20.029 177.522 19.588C180.36 18.06 183.949 16.134 185.233 13.439C186.883 9.979 177.9 11.273 176.725 11.303ZM183.789 13.341C183.067 15.719 179.168 17.339 177.242 18.534C177.049 18.653 176.845 18.775 176.649 18.896C176.807 20.228 179.661 28.466 179.331 28.795C179.043 29.083 177.66 28.241 177.597 28.184C176.321 27.013 174.837 25.96 173.466 24.895C172.543 24.177 171.454 23.707 170.492 23.077C168.32 24.563 161.584 29.024 161.459 29.21C161.366 29.255 161.122 29.47 161.07 29.465C160.19 28.455 162.885 21.372 163.207 19.938C162.59 19.694 158.533 18.37 155.562 15.331C155.349 15.114 155.266 14.9 155.308 14.683C155.309 14.678 155.31 14.674 155.31 14.668C155.313 14.658 155.313 14.647 155.315 14.638C155.341 14.316 155.536 13.997 155.881 13.892C158.678 13.038 161.981 13.148 165.027 13.072C165.299 12.444 165.328 11.674 165.492 10.944C165.77 9.71199 166 8.47199 166.273 7.23999C166.557 5.95599 166.436 3.278 167.81 2.621C167.854 2.6 167.898 2.58699 167.941 2.57499C168.125 2.44099 168.355 2.373 168.594 2.44C170.028 2.844 171.443 7.14999 171.67 7.85399C171.671 7.81999 173.05 12.294 173.779 12.572C174.276 12.56 176.39 12.42 176.598 12.415C176.595 12.43 178.183 12.376 178.978 12.327C180.289 12.19 183.507 12.313 183.601 12.592C183.782 12.787 183.872 13.066 183.789 13.341Z" fill="#995C41"/>
</svg>
